<mxfile host="app.diagrams.net" modified="2023-05-15T07:03:34.142Z" agent="Mozilla/5.0 (Windows NT 10.0; Win64; x64) AppleWebKit/537.36 (KHTML, like Gecko) Chrome/112.0.0.0 Safari/537.36" etag="XvoZrCL659nyiJELlaci" version="21.3.0" type="github">
  <diagram id="C5RBs43oDa-KdzZeNtuy" name="Page-1">
    <mxGraphModel dx="1434" dy="764" grid="1" gridSize="10" guides="1" tooltips="1" connect="1" arrows="1" fold="1" page="1" pageScale="1" pageWidth="291" pageHeight="413" math="1" shadow="0">
      <root>
        <mxCell id="WIyWlLk6GJQsqaUBKTNV-0" />
        <mxCell id="WIyWlLk6GJQsqaUBKTNV-1" parent="WIyWlLk6GJQsqaUBKTNV-0" />
        <mxCell id="WIyWlLk6GJQsqaUBKTNV-2" value="" style="rounded=0;html=1;jettySize=auto;orthogonalLoop=1;fontSize=12;endArrow=block;endFill=0;endSize=8;strokeWidth=1;shadow=0;labelBackgroundColor=none;edgeStyle=orthogonalEdgeStyle;entryX=0.5;entryY=0;entryDx=0;entryDy=0;fontFamily=Times New Roman;" parent="WIyWlLk6GJQsqaUBKTNV-1" source="WIyWlLk6GJQsqaUBKTNV-3" target="UfAaJfHSx5WKfrDZRz61-0" edge="1">
          <mxGeometry relative="1" as="geometry" />
        </mxCell>
        <mxCell id="WIyWlLk6GJQsqaUBKTNV-3" value="Start" style="rounded=1;whiteSpace=wrap;html=1;fontSize=12;glass=0;strokeWidth=1;shadow=0;fontFamily=Times New Roman;" parent="WIyWlLk6GJQsqaUBKTNV-1" vertex="1">
          <mxGeometry x="259" y="70" width="120" height="40" as="geometry" />
        </mxCell>
        <mxCell id="WIyWlLk6GJQsqaUBKTNV-4" value="Yes" style="rounded=0;html=1;jettySize=auto;orthogonalLoop=1;fontSize=12;endArrow=block;endFill=0;endSize=8;strokeWidth=1;shadow=0;labelBackgroundColor=none;edgeStyle=orthogonalEdgeStyle;entryX=0.5;entryY=0;entryDx=0;entryDy=0;fontFamily=Times New Roman;" parent="WIyWlLk6GJQsqaUBKTNV-1" source="WIyWlLk6GJQsqaUBKTNV-6" target="WIyWlLk6GJQsqaUBKTNV-11" edge="1">
          <mxGeometry y="20" relative="1" as="geometry">
            <mxPoint as="offset" />
            <mxPoint x="319" y="750" as="targetPoint" />
          </mxGeometry>
        </mxCell>
        <mxCell id="WIyWlLk6GJQsqaUBKTNV-5" value="No" style="edgeStyle=orthogonalEdgeStyle;rounded=0;html=1;jettySize=auto;orthogonalLoop=1;fontSize=12;endArrow=block;endFill=0;endSize=8;strokeWidth=1;shadow=0;labelBackgroundColor=none;fontFamily=Times New Roman;" parent="WIyWlLk6GJQsqaUBKTNV-1" source="WIyWlLk6GJQsqaUBKTNV-6" edge="1">
          <mxGeometry y="10" relative="1" as="geometry">
            <mxPoint as="offset" />
            <mxPoint x="319" y="150" as="targetPoint" />
            <Array as="points">
              <mxPoint x="120" y="660" />
              <mxPoint x="120" y="150" />
              <mxPoint x="319" y="150" />
            </Array>
          </mxGeometry>
        </mxCell>
        <mxCell id="WIyWlLk6GJQsqaUBKTNV-6" value="Convergence?" style="rhombus;whiteSpace=wrap;html=1;shadow=0;fontFamily=Times New Roman;fontSize=12;align=center;strokeWidth=1;spacing=6;spacingTop=-4;" parent="WIyWlLk6GJQsqaUBKTNV-1" vertex="1">
          <mxGeometry x="269" y="620" width="100" height="80" as="geometry" />
        </mxCell>
        <mxCell id="WIyWlLk6GJQsqaUBKTNV-11" value="Stop" style="rounded=1;whiteSpace=wrap;html=1;fontSize=12;glass=0;strokeWidth=1;shadow=0;fontFamily=Times New Roman;" parent="WIyWlLk6GJQsqaUBKTNV-1" vertex="1">
          <mxGeometry x="259" y="740" width="120" height="40" as="geometry" />
        </mxCell>
        <mxCell id="UfAaJfHSx5WKfrDZRz61-1" style="edgeStyle=orthogonalEdgeStyle;rounded=0;orthogonalLoop=1;jettySize=auto;html=1;entryX=0.5;entryY=0;entryDx=0;entryDy=0;fontFamily=Times New Roman;fontSize=12;" parent="WIyWlLk6GJQsqaUBKTNV-1" source="UfAaJfHSx5WKfrDZRz61-0" target="UfAaJfHSx5WKfrDZRz61-2" edge="1">
          <mxGeometry relative="1" as="geometry" />
        </mxCell>
        <mxCell id="UfAaJfHSx5WKfrDZRz61-0" value="Step-1&lt;br style=&quot;font-size: 12px;&quot;&gt;Solve the discretised momentum Eqns.&lt;br style=&quot;font-size: 12px;&quot;&gt;\(&amp;nbsp; a_{p} U_p^* = \sum a_{n} U_n^* - (\nabla P^*) V_p + b_p \)&amp;nbsp;" style="rounded=0;whiteSpace=wrap;html=1;fontFamily=Times New Roman;fontSize=12;" parent="WIyWlLk6GJQsqaUBKTNV-1" vertex="1">
          <mxGeometry x="149" y="180" width="340" height="60" as="geometry" />
        </mxCell>
        <mxCell id="UfAaJfHSx5WKfrDZRz61-9" style="edgeStyle=orthogonalEdgeStyle;rounded=0;orthogonalLoop=1;jettySize=auto;html=1;fontFamily=Times New Roman;fontSize=12;" parent="WIyWlLk6GJQsqaUBKTNV-1" source="UfAaJfHSx5WKfrDZRz61-2" target="UfAaJfHSx5WKfrDZRz61-8" edge="1">
          <mxGeometry relative="1" as="geometry" />
        </mxCell>
        <mxCell id="UfAaJfHSx5WKfrDZRz61-2" value="Step-2&lt;br style=&quot;font-size: 12px;&quot;&gt;Update the surface flux \( \dot{m}_f&amp;nbsp; \) with \( U_f^* \)&lt;br&gt;Solve the pressure correction Eqns with \( \dot{m}_f&amp;nbsp; \)." style="whiteSpace=wrap;html=1;fontFamily=Times New Roman;fontSize=12;" parent="WIyWlLk6GJQsqaUBKTNV-1" vertex="1">
          <mxGeometry x="149" y="290" width="340" height="60" as="geometry" />
        </mxCell>
        <mxCell id="UfAaJfHSx5WKfrDZRz61-3" value="Initial Guess&amp;nbsp; \( U^* , P^*, \phi^* \)&amp;nbsp;" style="text;strokeColor=none;align=center;fillColor=none;html=1;verticalAlign=middle;whiteSpace=wrap;rounded=0;fontFamily=Times New Roman;fontSize=12;" parent="WIyWlLk6GJQsqaUBKTNV-1" vertex="1">
          <mxGeometry x="324" y="120" width="156" height="30" as="geometry" />
        </mxCell>
        <mxCell id="UfAaJfHSx5WKfrDZRz61-13" style="edgeStyle=orthogonalEdgeStyle;rounded=0;orthogonalLoop=1;jettySize=auto;html=1;fontFamily=Times New Roman;fontSize=12;" parent="WIyWlLk6GJQsqaUBKTNV-1" source="UfAaJfHSx5WKfrDZRz61-8" target="UfAaJfHSx5WKfrDZRz61-12" edge="1">
          <mxGeometry relative="1" as="geometry" />
        </mxCell>
        <mxCell id="UfAaJfHSx5WKfrDZRz61-8" value="Step-3&lt;br style=&quot;font-size: 12px;&quot;&gt;Update the pressure and velocity." style="whiteSpace=wrap;html=1;fontFamily=Times New Roman;fontSize=12;" parent="WIyWlLk6GJQsqaUBKTNV-1" vertex="1">
          <mxGeometry x="149" y="400" width="340" height="60" as="geometry" />
        </mxCell>
        <mxCell id="UfAaJfHSx5WKfrDZRz61-10" value="&amp;nbsp; \( U^*&amp;nbsp; \)&amp;nbsp;" style="text;strokeColor=none;align=center;fillColor=none;html=1;verticalAlign=middle;whiteSpace=wrap;rounded=0;fontFamily=Times New Roman;fontSize=12;" parent="WIyWlLk6GJQsqaUBKTNV-1" vertex="1">
          <mxGeometry x="319" y="250" width="50" height="30" as="geometry" />
        </mxCell>
        <mxCell id="UfAaJfHSx5WKfrDZRz61-11" value="&amp;nbsp; \( P&#39;&amp;nbsp; \)&amp;nbsp;" style="text;strokeColor=none;align=center;fillColor=none;html=1;verticalAlign=middle;whiteSpace=wrap;rounded=0;fontFamily=Times New Roman;fontSize=12;" parent="WIyWlLk6GJQsqaUBKTNV-1" vertex="1">
          <mxGeometry x="319" y="360" width="60" height="30" as="geometry" />
        </mxCell>
        <mxCell id="UfAaJfHSx5WKfrDZRz61-15" style="edgeStyle=orthogonalEdgeStyle;rounded=0;orthogonalLoop=1;jettySize=auto;html=1;entryX=0.5;entryY=0;entryDx=0;entryDy=0;fontFamily=Times New Roman;fontSize=12;" parent="WIyWlLk6GJQsqaUBKTNV-1" source="UfAaJfHSx5WKfrDZRz61-12" target="WIyWlLk6GJQsqaUBKTNV-6" edge="1">
          <mxGeometry relative="1" as="geometry" />
        </mxCell>
        <mxCell id="UfAaJfHSx5WKfrDZRz61-12" value="Step-4&lt;br style=&quot;font-size: 12px;&quot;&gt;Solver other transport Eqns." style="whiteSpace=wrap;html=1;fontFamily=Times New Roman;fontSize=12;" parent="WIyWlLk6GJQsqaUBKTNV-1" vertex="1">
          <mxGeometry x="149" y="510" width="340" height="60" as="geometry" />
        </mxCell>
        <mxCell id="UfAaJfHSx5WKfrDZRz61-14" value="&amp;nbsp; \( \phi&amp;nbsp; \)&amp;nbsp;" style="text;strokeColor=none;align=center;fillColor=none;html=1;verticalAlign=middle;whiteSpace=wrap;rounded=0;fontFamily=Times New Roman;fontSize=12;" parent="WIyWlLk6GJQsqaUBKTNV-1" vertex="1">
          <mxGeometry x="319" y="580" width="60" height="30" as="geometry" />
        </mxCell>
        <mxCell id="UfAaJfHSx5WKfrDZRz61-16" value="\( U^* = U \),&amp;nbsp; &lt;br style=&quot;font-size: 12px;&quot;&gt;\( P^* = P\), &lt;br style=&quot;font-size: 12px;&quot;&gt;\( \phi^* = \phi \)&amp;nbsp;" style="text;strokeColor=none;align=center;fillColor=none;html=1;verticalAlign=middle;whiteSpace=wrap;rounded=0;fontFamily=Times New Roman;fontSize=12;" parent="WIyWlLk6GJQsqaUBKTNV-1" vertex="1">
          <mxGeometry x="129" y="600" width="100" height="50" as="geometry" />
        </mxCell>
        <mxCell id="UfAaJfHSx5WKfrDZRz61-17" value="&amp;nbsp; \( U, P&amp;nbsp; \)&amp;nbsp;" style="text;strokeColor=none;align=center;fillColor=none;html=1;verticalAlign=middle;whiteSpace=wrap;rounded=0;fontFamily=Times New Roman;fontSize=12;" parent="WIyWlLk6GJQsqaUBKTNV-1" vertex="1">
          <mxGeometry x="324" y="470" width="50" height="30" as="geometry" />
        </mxCell>
      </root>
    </mxGraphModel>
  </diagram>
</mxfile>
